# xmcd
#
# Track frame offsets: 
#        150
#        23955
#        46952
#
# Disc length: 941 seconds
#
# Revision: 1
# Processed by: cddbd v1.5.2PL0 Copyright (c) Steve Scherf et al.
# Submitted via: ExactAudioCopy v1.0b1
#
DISCID=1d03ab03
DTITLE=平原綾香 - 虹の予感
DYEAR=2004
DGENRE=JPop
TTITLE0=虹の予感
TTITLE1=私を呼んで
TTITLE2=虹の予感 ～Vocal-Less～
EXTD=
EXTT0=
EXTT1=
EXTT2=
PLAYORDER=
